<?xml version="1.0" encoding="UTF-8"?>
<!DOCTYPE svg PUBLIC "-//W3C//DTD SVG 1.1//EN" "http://www.w3.org/Graphics/SVG/1.1/DTD/svg11.dtd">
<svg xmlns="http://www.w3.org/2000/svg" version="1.1" width="365px" height="90px" style="shape-rendering:geometricPrecision; text-rendering:geometricPrecision; image-rendering:optimizeQuality; fill-rule:evenodd; clip-rule:evenodd" xmlns:xlink="http://www.w3.org/1999/xlink">
<g><path style="opacity:0.967" fill="#ff0020" d="M 76.5,3.5 C 106.061,2.2247 119.227,16.2247 116,45.5C 114.511,50.6444 112.344,55.4777 109.5,60C 100.149,60.8321 90.8155,60.6654 81.5,59.5C 84.3127,44.6031 87.3127,29.7697 90.5,15C 84.8431,14.5006 79.1764,14.3339 73.5,14.5C 70.059,32.8126 66.7257,51.1459 63.5,69.5C 76.0128,69.4516 88.3461,69.4516 100.5,69.5C 89.7983,79.4534 77.1317,83.2867 62.5,81C 43.6148,75.0756 35.4481,62.2423 38,42.5C 43.0146,21.6527 55.8479,8.6527 76.5,3.5 Z"/></g>
<g><path style="opacity:0.866" fill="#000000" d="M 141.5,24.5 C 144.777,24.2161 147.943,24.5495 151,25.5C 150.664,34.8498 149.164,44.0164 146.5,53C 151.833,53.3333 157.167,53.6667 162.5,54C 163.333,56.0811 163.333,58.2478 162.5,60.5C 152.833,60.5 143.167,60.5 133.5,60.5C 135.297,48.1647 137.964,36.1647 141.5,24.5 Z"/></g>
<g><path style="opacity:0.863" fill="#000000" d="M 175.5,24.5 C 184.506,24.3336 193.506,24.5002 202.5,25C 203.333,27.0811 203.333,29.2478 202.5,31.5C 196.575,31.1918 190.741,31.5251 185,32.5C 184.764,34.764 184.264,36.9307 183.5,39C 188.489,39.4993 193.489,39.6659 198.5,39.5C 198.643,41.2624 198.309,42.9291 197.5,44.5C 192.544,45.4941 187.544,45.8275 182.5,45.5C 181.908,48.1272 181.575,50.7938 181.5,53.5C 186.844,53.334 192.177,53.5006 197.5,54C 198.333,56.0811 198.333,58.2478 197.5,60.5C 187.478,60.8319 177.478,60.4985 167.5,59.5C 169.856,48.5511 172.023,37.5511 174,26.5C 174.717,25.9558 175.217,25.2891 175.5,24.5 Z"/></g>
<g><path style="opacity:0.87" fill="#000000" d="M 224.5,24.5 C 226.857,24.3367 229.19,24.5034 231.5,25C 235.328,36.3203 238.661,47.8203 241.5,59.5C 237.555,60.4909 233.555,60.8242 229.5,60.5C 228.908,57.8728 228.575,55.2062 228.5,52.5C 224.154,52.3343 219.821,52.501 215.5,53C 213.968,55.0344 212.635,57.2011 211.5,59.5C 208.5,60.8333 205.5,60.8333 202.5,59.5C 209.108,47.2634 216.441,35.5967 224.5,24.5 Z M 223.5,37.5 C 224.791,39.949 225.791,42.6156 226.5,45.5C 224.235,46.6474 221.902,46.8141 219.5,46C 221.246,43.3413 222.58,40.508 223.5,37.5 Z"/></g>
<g><path style="opacity:0.873" fill="#000000" d="M 255.5,24.5 C 262.23,24.2264 268.897,24.7264 275.5,26C 284.098,30.9501 284.765,36.9501 277.5,44C 275.754,44.4709 274.087,45.1376 272.5,46C 275.293,50.4175 277.959,54.9175 280.5,59.5C 276.541,60.6599 272.541,60.8265 268.5,60C 266.181,55.3544 263.681,50.8544 261,46.5C 259.829,51.0313 258.662,55.5313 257.5,60C 253.848,60.4986 250.182,60.6653 246.5,60.5C 248.115,49.4783 249.948,38.4783 252,27.5C 252.985,26.1859 254.152,25.1859 255.5,24.5 Z M 263.5,30.5 C 271.57,30.8683 273.237,34.2017 268.5,40.5C 266.253,41.3742 263.92,41.7076 261.5,41.5C 262.167,37.8333 262.833,34.1667 263.5,30.5 Z"/></g>
<g><path style="opacity:0.401" fill="#000000" d="M 284.5,53.5 C 290.704,53.3137 292.037,55.8137 288.5,61C 282.812,60.7902 281.479,58.2902 284.5,53.5 Z"/></g>
<g><path style="opacity:0.577" fill="#000000" d="M 136.5,68.5 C 139.061,68.4469 141.061,69.4469 142.5,71.5C 142.192,72.3081 141.692,72.9747 141,73.5C 139.116,71.4237 136.949,71.0903 134.5,72.5C 133.48,74.4325 133.313,76.4325 134,78.5C 136.232,79.1874 138.398,79.5207 140.5,79.5C 140.291,80.086 139.957,80.586 139.5,81C 132.51,83.0051 129.676,80.5051 131,73.5C 132.107,70.887 133.94,69.2203 136.5,68.5 Z"/></g>
<g><path style="opacity:0.606" fill="#000000" d="M 155.5,68.5 C 161.356,68.854 163.523,71.854 162,77.5C 158.569,81.8941 154.569,82.5608 150,79.5C 149.176,74.4818 151.009,70.8152 155.5,68.5 Z M 154.5,71.5 C 156.167,71.5 157.833,71.5 159.5,71.5C 160.225,75.3672 158.892,78.0339 155.5,79.5C 153.5,79.5 152.5,78.5 152.5,76.5C 152.902,74.6998 153.569,73.0332 154.5,71.5 Z"/></g>
<g><path style="opacity:0.564" fill="#000000" d="M 174.5,68.5 C 182.42,69.0943 183.42,71.9277 177.5,77C 178.687,78.0195 179.687,79.1861 180.5,80.5C 177.589,81.7924 175.756,80.7924 175,77.5C 174.5,78.5 174,79.5 173.5,80.5C 172.5,81.8333 171.5,81.8333 170.5,80.5C 170.993,76.1091 172.327,72.1091 174.5,68.5 Z M 175.5,71.5 C 177.355,71.272 178.188,71.9387 178,73.5C 174.877,75.0978 174.044,74.4311 175.5,71.5 Z"/></g>
<g><path style="opacity:0.576" fill="#000000" d="M 194.5,68.5 C 202.451,71.1182 202.451,74.1182 194.5,77.5C 193.561,79.0534 192.394,80.3867 191,81.5C 190.5,81.1667 190,80.8333 189.5,80.5C 190.681,76.9284 191.348,73.2617 191.5,69.5C 192.791,69.7373 193.791,69.404 194.5,68.5 Z M 194.5,71.5 C 196.355,71.272 197.188,71.9387 197,73.5C 193.877,75.0978 193.044,74.4311 194.5,71.5 Z"/></g>
<g><path style="opacity:0.606" fill="#000000" d="M 212.5,68.5 C 220.641,70.68 221.641,74.8467 215.5,81C 208.51,83.0051 205.676,80.5051 207,73.5C 208.406,71.2563 210.239,69.5897 212.5,68.5 Z M 211.5,71.5 C 216.914,71.9208 217.914,74.4208 214.5,79C 212.866,79.4935 211.199,79.6602 209.5,79.5C 209.107,76.4867 209.774,73.8201 211.5,71.5 Z"/></g>
<g><path style="opacity:0.587" fill="#000000" d="M 231.5,68.5 C 238.109,69.446 239.109,72.2793 234.5,77C 234.95,78.2853 235.617,79.452 236.5,80.5C 236,80.8333 235.5,81.1667 235,81.5C 232.974,80.4798 231.641,78.8132 231,76.5C 231.29,80.0894 229.79,81.5894 226.5,81C 227.864,77.3173 228.531,73.484 228.5,69.5C 229.791,69.7373 230.791,69.404 231.5,68.5 Z M 231.5,71.5 C 234.957,71.6672 235.29,72.6672 232.5,74.5C 231.614,73.675 231.281,72.675 231.5,71.5 Z"/></g>
<g><path style="opacity:0.606" fill="#000000" d="M 300.5,68.5 C 308.45,70.8011 309.45,74.9677 303.5,81C 296.51,83.0051 293.676,80.5051 295,73.5C 296.352,71.251 298.185,69.5844 300.5,68.5 Z M 299.5,71.5 C 304.914,71.9208 305.914,74.4208 302.5,79C 300.866,79.4935 299.199,79.6602 297.5,79.5C 297.107,76.4867 297.774,73.8201 299.5,71.5 Z"/></g>
<g><path style="opacity:0.624" fill="#000000" d="M 250.5,69.5 C 251.5,69.5 252.5,69.5 253.5,69.5C 254.167,73.5 254.833,77.5 255.5,81.5C 254.5,81.5 253.5,81.5 252.5,81.5C 252.5,80.1667 252.5,78.8333 252.5,77.5C 249.45,76.9232 247.45,78.0899 246.5,81C 245.365,81.7494 244.365,81.5827 243.5,80.5C 246.255,77.0834 248.588,73.4167 250.5,69.5 Z M 250.5,73.5 C 251.773,74.0768 251.773,74.7435 250.5,75.5C 249.537,75.0302 249.537,74.3635 250.5,73.5 Z"/></g>
<g><path style="opacity:0.612" fill="#000000" d="M 263.5,69.5 C 266.898,69.1796 270.232,69.513 273.5,70.5C 272.311,71.4287 270.978,71.762 269.5,71.5C 269.167,74.8333 268.833,78.1667 268.5,81.5C 267.5,81.5 266.5,81.5 265.5,81.5C 265.467,78.164 266.134,74.9973 267.5,72C 265.563,71.8784 264.23,71.045 263.5,69.5 Z"/></g>
<g><path style="opacity:0.605" fill="#000000" d="M 282.5,69.5 C 283.5,69.5 284.5,69.5 285.5,69.5C 284.962,73.5236 284.295,77.5236 283.5,81.5C 282.5,81.5 281.5,81.5 280.5,81.5C 281.295,77.5236 281.962,73.5236 282.5,69.5 Z"/></g>
<g><path style="opacity:0.612" fill="#000000" d="M 316.5,69.5 C 317.978,69.238 319.311,69.5713 320.5,70.5C 321.467,72.6297 322.634,74.6297 324,76.5C 324.681,74.1053 325.515,71.772 326.5,69.5C 327.367,73.4647 327.367,77.4647 326.5,81.5C 325.178,81.67 324.011,81.3366 323,80.5C 321.92,78.0038 320.586,75.6705 319,73.5C 318.433,76.1677 317.933,78.8344 317.5,81.5C 316.325,81.719 315.325,81.3857 314.5,80.5C 315.681,76.9284 316.348,73.2617 316.5,69.5 Z"/></g>
</svg>
