<?xml version="1.0" encoding="UTF-8"?>
<!DOCTYPE svg PUBLIC "-//W3C//DTD SVG 1.1//EN" "http://www.w3.org/Graphics/SVG/1.1/DTD/svg11.dtd">
<svg xmlns="http://www.w3.org/2000/svg" version="1.1" width="101px" height="33px" style="shape-rendering:geometricPrecision; text-rendering:geometricPrecision; image-rendering:optimizeQuality; fill-rule:evenodd; clip-rule:evenodd" xmlns:xlink="http://www.w3.org/1999/xlink">
<g><path style="opacity:0.904" fill="#ff0020" d="M 11.5,3.5 C 23.3262,1.83292 28.8262,6.83292 28,18.5C 27.2935,20.0806 26.4601,21.5806 25.5,23C 22.1177,23.8236 18.7844,23.657 15.5,22.5C 16.8227,17.5633 17.8227,12.5633 18.5,7.5C 16.8333,7.5 15.1667,7.5 13.5,7.5C 12.5009,13.4972 11.5009,19.4972 10.5,25.5C 14.5546,25.1758 18.5546,25.5091 22.5,26.5C 21.3349,27.5836 20.0016,28.4169 18.5,29C 5.55876,31.725 0.0587579,26.5583 2,13.5C 4.02229,8.98004 7.18896,5.6467 11.5,3.5 Z"/></g>
<g><path style="opacity:0.769" fill="#cacaca" d="M 57.5,11.5 C 55.3736,12.0482 53.3736,12.7148 51.5,13.5C 57.9671,15.5038 57.6337,17.3371 50.5,19C 52.7078,19.1909 54.7078,19.6909 56.5,20.5C 55.596,21.209 55.2627,22.209 55.5,23.5C 48.0682,22.637 40.7348,22.637 33.5,23.5C 33.6686,18.8189 34.0019,14.1522 34.5,9.5C 36.5,9.5 38.5,9.5 40.5,9.5C 40.0986,12.7479 39.432,15.9146 38.5,19C 40.8098,19.4966 43.1432,19.6633 45.5,19.5C 45.6159,16.1401 45.9492,12.8067 46.5,9.5C 50.649,8.91969 54.3157,9.58635 57.5,11.5 Z"/></g>
<g><path style="opacity:0.839" fill="#dadada" d="M 83.5,20.5 C 83.5,21.1667 83.5,21.8333 83.5,22.5C 79.7933,24.1292 77.6267,22.7959 77,18.5C 76.7089,23.5532 74.7089,24.5532 71,21.5C 68.4021,24.1985 66.2354,23.8652 64.5,20.5C 65.2918,19.8143 64.7918,19.481 63,19.5C 60.9135,20.4181 58.7468,21.0847 56.5,21.5C 56.5,21.1667 56.5,20.8333 56.5,20.5C 58.4701,17.6717 60.3034,14.6717 62,11.5C 63.5553,9.48484 65.3886,9.15151 67.5,10.5C 68.3466,13.5539 69.3466,16.5539 70.5,19.5C 71.4394,16.2907 72.4394,13.124 73.5,10C 76.562,9.2585 79.562,9.42517 82.5,10.5C 85.2833,13.342 84.9499,15.842 81.5,18C 82.0659,18.9947 82.7326,19.828 83.5,20.5 Z M 79.5,13.5 C 79.1667,14.5 78.5,15.1667 77.5,15.5C 77.5,14.1667 78.1667,13.5 79.5,13.5 Z"/></g>
<g><path style="opacity:0.29" fill="#101010" d="M 57.5,11.5 C 56.0821,13.3079 54.0821,13.9746 51.5,13.5C 53.3736,12.7148 55.3736,12.0482 57.5,11.5 Z"/></g>
<g><path style="opacity:0.651" fill="#6c6c6c" d="M 79.5,13.5 C 78.1667,13.5 77.5,14.1667 77.5,15.5C 76.596,14.791 76.2627,13.791 76.5,12.5C 77.791,12.2627 78.791,12.596 79.5,13.5 Z"/></g>
<g><path style="opacity:0.209" fill="#000000" d="M 83.5,22.5 C 83.5,21.8333 83.5,21.1667 83.5,20.5C 84.9391,19.4908 86.2724,19.8241 87.5,21.5C 86.5629,23.6424 85.2296,23.9757 83.5,22.5 Z"/></g>
<g><path style="opacity:0.494" fill="#4b4b4b" d="M 64.5,20.5 C 62.027,20.7991 59.8603,21.7991 58,23.5C 56.9701,23.1639 56.4701,22.4972 56.5,21.5C 58.7468,21.0847 60.9135,20.4181 63,19.5C 64.7918,19.481 65.2918,19.8143 64.5,20.5 Z"/></g>
<g><path style="opacity:0.247" fill="#000000" d="M 32.5,25.5 C 34.288,25.2148 35.9547,25.5481 37.5,26.5C 36.624,27.2508 35.624,27.7508 34.5,28C 35.1667,28.3333 35.8333,28.6667 36.5,29C 32.5278,30.1113 31.1944,28.9446 32.5,25.5 Z"/></g>
<g><path style="opacity:0.369" fill="#000000" d="M 39.5,25.5 C 40.8333,25.5 42.1667,25.5 43.5,25.5C 43.5,26.8333 43.5,28.1667 43.5,29.5C 41.8333,29.5 40.1667,29.5 38.5,29.5C 38.4326,28.0413 38.7659,26.7079 39.5,25.5 Z"/></g>
<g><path style="opacity:0.365" fill="#000000" d="M 46.5,25.5 C 49.5225,25.1052 50.5225,26.1052 49.5,28.5C 48.1667,29.8333 46.8333,29.8333 45.5,28.5C 46.1272,27.5832 46.4606,26.5832 46.5,25.5 Z"/></g>
<g><path style="opacity:0.393" fill="#000000" d="M 52.5,25.5 C 53.8333,25.5 55.1667,25.5 56.5,25.5C 56.5499,27.5901 55.5499,28.9234 53.5,29.5C 52.5713,28.3112 52.238,26.9778 52.5,25.5 Z"/></g>
<g><path style="opacity:0.305" fill="#000000" d="M 58.5,25.5 C 60.6648,25.1159 62.3315,25.7826 63.5,27.5C 61.9775,29.2825 59.9775,29.9492 57.5,29.5C 57.4326,28.0413 57.7659,26.7079 58.5,25.5 Z"/></g>
<g><path style="opacity:0.364" fill="#000000" d="M 65.5,25.5 C 68.5225,25.1052 69.5225,26.1052 68.5,28.5C 67.1667,29.8333 65.8333,29.8333 64.5,28.5C 65.1272,27.5832 65.4606,26.5832 65.5,25.5 Z"/></g>
<g><path style="opacity:0.391" fill="#000000" d="M 72.5,25.5 C 77.1366,29.0492 76.47,30.2159 70.5,29C 71.305,27.8873 71.9717,26.7206 72.5,25.5 Z"/></g>
<g><path style="opacity:0.332" fill="#000000" d="M 77.5,25.5 C 82.5018,25.5218 82.8352,26.8552 78.5,29.5C 77.5713,28.3112 77.238,26.9778 77.5,25.5 Z"/></g>
<g><path style="opacity:0.312" fill="#000000" d="M 83.5,25.5 C 85.8075,26.405 85.8075,27.7383 83.5,29.5C 82.3744,28.1916 82.3744,26.8583 83.5,25.5 Z"/></g>
<g><path style="opacity:0.387" fill="#000000" d="M 88.5,25.5 C 89.8333,25.5 91.1667,25.5 92.5,25.5C 92.5,26.8333 92.5,28.1667 92.5,29.5C 90.8333,29.5 89.1667,29.5 87.5,29.5C 87.4326,28.0413 87.7659,26.7079 88.5,25.5 Z"/></g>
<g><path style="opacity:0.452" fill="#000000" d="M 94.5,25.5 C 96.3841,25.7118 97.7174,26.7118 98.5,28.5C 97.302,28.9396 96.1353,29.273 95,29.5C 94.51,28.2068 94.3433,26.8734 94.5,25.5 Z"/></g>
</svg>
