<?xml version="1.0" encoding="UTF-8"?>
<!DOCTYPE svg PUBLIC "-//W3C//DTD SVG 1.1//EN" "http://www.w3.org/Graphics/SVG/1.1/DTD/svg11.dtd">
<svg xmlns="http://www.w3.org/2000/svg" version="1.1" width="365px" height="90px" style="shape-rendering:geometricPrecision; text-rendering:geometricPrecision; image-rendering:optimizeQuality; fill-rule:evenodd; clip-rule:evenodd" xmlns:xlink="http://www.w3.org/1999/xlink">
<g><path style="opacity:0.967" fill="#ff0020" d="M 75.5,5.5 C 105.061,4.2247 118.227,18.2247 115,47.5C 113.511,52.6444 111.344,57.4777 108.5,62C 99.1489,62.8321 89.8155,62.6654 80.5,61.5C 83.3127,46.6031 86.3127,31.7697 89.5,17C 83.8431,16.5006 78.1764,16.3339 72.5,16.5C 69.059,34.8126 65.7257,53.1459 62.5,71.5C 75.0128,71.4516 87.3461,71.4516 99.5,71.5C 88.7983,81.4534 76.1317,85.2867 61.5,83C 42.6148,77.0756 34.4481,64.2423 37,44.5C 42.0146,23.6527 54.8479,10.6527 75.5,5.5 Z"/></g>
<g><path style="opacity:0.866" fill="#000000" d="M 140.5,26.5 C 143.777,26.2161 146.943,26.5495 150,27.5C 149.664,36.8498 148.164,46.0164 145.5,55C 150.833,55.3333 156.167,55.6667 161.5,56C 162.333,58.0811 162.333,60.2478 161.5,62.5C 151.833,62.5 142.167,62.5 132.5,62.5C 134.297,50.1647 136.964,38.1647 140.5,26.5 Z"/></g>
<g><path style="opacity:0.863" fill="#000000" d="M 174.5,26.5 C 183.506,26.3336 192.506,26.5002 201.5,27C 202.333,29.0811 202.333,31.2478 201.5,33.5C 195.575,33.1918 189.741,33.5251 184,34.5C 183.764,36.764 183.264,38.9307 182.5,41C 187.489,41.4993 192.489,41.6659 197.5,41.5C 197.643,43.2624 197.309,44.9291 196.5,46.5C 191.544,47.4941 186.544,47.8275 181.5,47.5C 180.908,50.1272 180.575,52.7938 180.5,55.5C 185.844,55.334 191.177,55.5006 196.5,56C 197.333,58.0811 197.333,60.2478 196.5,62.5C 186.478,62.8319 176.478,62.4985 166.5,61.5C 168.856,50.5511 171.023,39.5511 173,28.5C 173.717,27.9558 174.217,27.2891 174.5,26.5 Z"/></g>
<g><path style="opacity:0.87" fill="#000000" d="M 223.5,26.5 C 225.857,26.3367 228.19,26.5034 230.5,27C 234.328,38.3203 237.661,49.8203 240.5,61.5C 236.555,62.4909 232.555,62.8242 228.5,62.5C 227.908,59.8728 227.575,57.2062 227.5,54.5C 223.154,54.3343 218.821,54.501 214.5,55C 212.968,57.0344 211.635,59.2011 210.5,61.5C 207.5,62.8333 204.5,62.8333 201.5,61.5C 208.108,49.2634 215.441,37.5967 223.5,26.5 Z M 222.5,39.5 C 223.791,41.949 224.791,44.6156 225.5,47.5C 223.235,48.6474 220.902,48.8141 218.5,48C 220.246,45.3413 221.58,42.508 222.5,39.5 Z"/></g>
<g><path style="opacity:0.873" fill="#000000" d="M 254.5,26.5 C 261.23,26.2264 267.897,26.7264 274.5,28C 283.098,32.9501 283.765,38.9501 276.5,46C 274.754,46.4709 273.087,47.1376 271.5,48C 274.293,52.4175 276.959,56.9175 279.5,61.5C 275.541,62.6599 271.541,62.8265 267.5,62C 265.181,57.3544 262.681,52.8544 260,48.5C 258.829,53.0313 257.662,57.5313 256.5,62C 252.848,62.4986 249.182,62.6653 245.5,62.5C 247.115,51.4783 248.948,40.4783 251,29.5C 251.985,28.1859 253.152,27.1859 254.5,26.5 Z M 262.5,32.5 C 270.57,32.8683 272.237,36.2017 267.5,42.5C 265.253,43.3742 262.92,43.7076 260.5,43.5C 261.167,39.8333 261.833,36.1667 262.5,32.5 Z"/></g>
<g><path style="opacity:0.401" fill="#000000" d="M 283.5,55.5 C 289.704,55.3137 291.037,57.8137 287.5,63C 281.812,62.7902 280.479,60.2902 283.5,55.5 Z"/></g>
<g><path style="opacity:0.577" fill="#000000" d="M 135.5,70.5 C 138.061,70.4469 140.061,71.4469 141.5,73.5C 141.192,74.3081 140.692,74.9747 140,75.5C 138.116,73.4237 135.949,73.0903 133.5,74.5C 132.48,76.4325 132.313,78.4325 133,80.5C 135.232,81.1874 137.398,81.5207 139.5,81.5C 139.291,82.086 138.957,82.586 138.5,83C 131.51,85.0051 128.676,82.5051 130,75.5C 131.107,72.887 132.94,71.2203 135.5,70.5 Z"/></g>
<g><path style="opacity:0.606" fill="#000000" d="M 154.5,70.5 C 160.356,70.854 162.523,73.854 161,79.5C 157.569,83.8941 153.569,84.5608 149,81.5C 148.176,76.4818 150.009,72.8152 154.5,70.5 Z M 153.5,73.5 C 155.167,73.5 156.833,73.5 158.5,73.5C 159.225,77.3672 157.892,80.0339 154.5,81.5C 152.5,81.5 151.5,80.5 151.5,78.5C 151.902,76.6998 152.569,75.0332 153.5,73.5 Z"/></g>
<g><path style="opacity:0.564" fill="#000000" d="M 173.5,70.5 C 181.42,71.0943 182.42,73.9277 176.5,79C 177.687,80.0195 178.687,81.1861 179.5,82.5C 176.589,83.7924 174.756,82.7924 174,79.5C 173.5,80.5 173,81.5 172.5,82.5C 171.5,83.8333 170.5,83.8333 169.5,82.5C 169.993,78.1091 171.327,74.1091 173.5,70.5 Z M 174.5,73.5 C 176.355,73.272 177.188,73.9387 177,75.5C 173.877,77.0978 173.044,76.4311 174.5,73.5 Z"/></g>
<g><path style="opacity:0.576" fill="#000000" d="M 193.5,70.5 C 201.451,73.1182 201.451,76.1182 193.5,79.5C 192.561,81.0534 191.394,82.3867 190,83.5C 189.5,83.1667 189,82.8333 188.5,82.5C 189.681,78.9284 190.348,75.2617 190.5,71.5C 191.791,71.7373 192.791,71.404 193.5,70.5 Z M 193.5,73.5 C 195.355,73.272 196.188,73.9387 196,75.5C 192.877,77.0978 192.044,76.4311 193.5,73.5 Z"/></g>
<g><path style="opacity:0.606" fill="#000000" d="M 211.5,70.5 C 219.641,72.68 220.641,76.8467 214.5,83C 207.51,85.0051 204.676,82.5051 206,75.5C 207.406,73.2563 209.239,71.5897 211.5,70.5 Z M 210.5,73.5 C 215.914,73.9208 216.914,76.4208 213.5,81C 211.866,81.4935 210.199,81.6602 208.5,81.5C 208.107,78.4867 208.774,75.8201 210.5,73.5 Z"/></g>
<g><path style="opacity:0.587" fill="#000000" d="M 230.5,70.5 C 237.109,71.446 238.109,74.2793 233.5,79C 233.95,80.2853 234.617,81.452 235.5,82.5C 235,82.8333 234.5,83.1667 234,83.5C 231.974,82.4798 230.641,80.8132 230,78.5C 230.29,82.0894 228.79,83.5894 225.5,83C 226.864,79.3173 227.531,75.484 227.5,71.5C 228.791,71.7373 229.791,71.404 230.5,70.5 Z M 230.5,73.5 C 233.957,73.6672 234.29,74.6672 231.5,76.5C 230.614,75.675 230.281,74.675 230.5,73.5 Z"/></g>
<g><path style="opacity:0.606" fill="#000000" d="M 299.5,70.5 C 307.45,72.8011 308.45,76.9677 302.5,83C 295.51,85.0051 292.676,82.5051 294,75.5C 295.352,73.251 297.185,71.5844 299.5,70.5 Z M 298.5,73.5 C 303.914,73.9208 304.914,76.4208 301.5,81C 299.866,81.4935 298.199,81.6602 296.5,81.5C 296.107,78.4867 296.774,75.8201 298.5,73.5 Z"/></g>
<g><path style="opacity:0.624" fill="#000000" d="M 249.5,71.5 C 250.5,71.5 251.5,71.5 252.5,71.5C 253.167,75.5 253.833,79.5 254.5,83.5C 253.5,83.5 252.5,83.5 251.5,83.5C 251.5,82.1667 251.5,80.8333 251.5,79.5C 248.45,78.9232 246.45,80.0899 245.5,83C 244.365,83.7494 243.365,83.5827 242.5,82.5C 245.255,79.0834 247.588,75.4167 249.5,71.5 Z M 249.5,75.5 C 250.773,76.0768 250.773,76.7435 249.5,77.5C 248.537,77.0302 248.537,76.3635 249.5,75.5 Z"/></g>
<g><path style="opacity:0.612" fill="#000000" d="M 262.5,71.5 C 265.898,71.1796 269.232,71.513 272.5,72.5C 271.311,73.4287 269.978,73.762 268.5,73.5C 268.167,76.8333 267.833,80.1667 267.5,83.5C 266.5,83.5 265.5,83.5 264.5,83.5C 264.467,80.164 265.134,76.9973 266.5,74C 264.563,73.8784 263.23,73.045 262.5,71.5 Z"/></g>
<g><path style="opacity:0.605" fill="#000000" d="M 281.5,71.5 C 282.5,71.5 283.5,71.5 284.5,71.5C 283.962,75.5236 283.295,79.5236 282.5,83.5C 281.5,83.5 280.5,83.5 279.5,83.5C 280.295,79.5236 280.962,75.5236 281.5,71.5 Z"/></g>
<g><path style="opacity:0.612" fill="#000000" d="M 315.5,71.5 C 316.978,71.238 318.311,71.5713 319.5,72.5C 320.467,74.6297 321.634,76.6297 323,78.5C 323.681,76.1053 324.515,73.772 325.5,71.5C 326.367,75.4647 326.367,79.4647 325.5,83.5C 324.178,83.67 323.011,83.3366 322,82.5C 320.92,80.0038 319.586,77.6705 318,75.5C 317.433,78.1677 316.933,80.8344 316.5,83.5C 315.325,83.719 314.325,83.3857 313.5,82.5C 314.681,78.9284 315.348,75.2617 315.5,71.5 Z"/></g>
</svg>
