<?xml version="1.0" encoding="UTF-8"?>
<!DOCTYPE svg PUBLIC "-//W3C//DTD SVG 1.1//EN" "http://www.w3.org/Graphics/SVG/1.1/DTD/svg11.dtd">
<svg xmlns="http://www.w3.org/2000/svg" version="1.1" width="90px" height="73px" style="shape-rendering:geometricPrecision; text-rendering:geometricPrecision; image-rendering:optimizeQuality; fill-rule:evenodd; clip-rule:evenodd" xmlns:xlink="http://www.w3.org/1999/xlink">
<g><path style="opacity:0.93" fill="#ff0020" d="M 40.5,2.5 C 59.4868,-1.26124 72.3202,5.73876 79,23.5C 80.4916,32.0583 79.1583,40.0583 75,47.5C 73.9542,49.0905 72.7875,50.5905 71.5,52C 63.4792,52.8316 55.4792,52.6649 47.5,51.5C 49.653,38.4017 52.3197,25.4017 55.5,12.5C 50.8687,11.3384 46.202,11.1717 41.5,12C 38.5703,27.4828 35.5703,42.9828 32.5,58.5C 43.1874,58.168 53.8541,58.5013 64.5,59.5C 60.2947,64.4409 54.9614,67.6076 48.5,69C 30.5259,73.0941 17.6926,66.9274 10,50.5C 8.26731,26.9701 18.434,10.9701 40.5,2.5 Z"/></g>
</svg>
